<?xml version="1.0" standalone="no"?>
<!DOCTYPE svg PUBLIC "-//W3C//DTD SVG 20010904//EN"
 "http://www.w3.org/TR/2001/REC-SVG-20010904/DTD/svg10.dtd">
<svg version="1.0" xmlns="http://www.w3.org/2000/svg"
 width="532.000000pt" height="120.000000pt" viewBox="0 0 532.000000 120.000000"
 preserveAspectRatio="xMidYMid meet">

<g transform="translate(0.000000,120.000000) scale(0.100000,-0.100000)"
fill="#000000" stroke="none">
<path d="M832 1191 c-8 -4 -15 -31 -16 -62 -2 -30 -4 -66 -5 -81 -1 -23 -6
-28 -28 -29 -28 0 -28 0 -7 -15 31 -22 20 -57 -24 -76 -32 -14 -39 -14 -59 -1
-13 9 -23 11 -23 5 0 -12 37 -25 68 -22 26 2 28 -8 5 -26 -22 -17 -54 -18 -50
-2 1 6 -7 14 -18 16 -36 7 -40 20 -15 47 l23 25 -28 40 c-30 43 -48 56 -21 15
15 -23 15 -25 1 -25 -9 0 -25 5 -36 10 -15 8 -19 8 -17 -2 2 -8 -8 -14 -27
-15 -19 -1 -22 1 -8 4 17 3 21 10 18 31 -4 35 -3 34 -17 22 -7 -6 -22 -17 -33
-24 -16 -11 -17 -17 -7 -29 10 -12 9 -15 -8 -20 -11 -3 -23 -1 -26 4 -8 13
-44 11 -44 -3 0 -6 -6 -3 -14 7 -19 27 -11 40 39 64 39 18 67 41 50 41 -18 0
-95 -47 -129 -79 -32 -30 -36 -32 -25 -11 12 22 13 48 4 59 -2 2 -16 -10 -30
-25 l-27 -29 21 37 c20 37 20 37 0 25 -11 -6 -25 -31 -31 -54 -6 -25 -16 -43
-24 -43 -19 0 -18 30 2 60 11 17 8 16 -10 -5 -61 -72 -53 -67 -88 -49 -29 15
-30 15 -24 -1 5 -13 2 -16 -9 -11 -13 4 -14 2 -5 -14 15 -27 12 -34 -6 -19
-15 12 -16 11 -10 -7 5 -18 2 -22 -25 -28 -20 -4 -38 -1 -47 6 -13 11 -15 10
-9 -5 4 -10 7 -22 7 -27 0 -5 7 -16 16 -24 14 -15 14 -18 -4 -43 -10 -16 -22
-50 -25 -78 -5 -47 -5 -48 6 -18 13 35 27 53 27 35 0 -17 40 -15 46 3 4 8 13
15 21 15 8 0 11 -4 8 -10 -3 -5 -2 -10 3 -10 15 0 22 26 9 39 -8 8 -7 11 5 11
9 0 22 -13 29 -29 12 -27 14 -28 36 -14 30 20 39 12 37 -34 -2 -45 -24 -107
-65 -185 -23 -44 -26 -56 -14 -51 16 5 16 3 2 -23 -10 -20 -12 -35 -6 -46 7
-12 5 -16 -8 -14 -22 4 -27 20 -13 45 19 36 3 23 -21 -16 -12 -21 -33 -51 -46
-66 -13 -16 -23 -34 -23 -40 0 -7 5 -4 11 6 13 22 39 22 39 0 0 -13 12 -6 40
25 22 23 40 52 40 65 0 41 113 202 136 193 7 -3 23 9 35 26 l22 30 14 -33 c16
-37 4 -82 -19 -74 -15 6 -83 -33 -74 -42 3 -3 12 0 21 7 18 15 20 0 3 -20 -11
-12 -10 -12 4 -2 14 11 23 8 57 -15 22 -15 40 -33 41 -39 0 -6 -9 -37 -20 -70
-12 -32 -29 -89 -39 -127 -10 -37 -31 -84 -46 -105 l-28 -37 38 35 38 35 -7
-30 -8 -30 31 29 c17 16 34 26 38 22 5 -4 -4 -17 -20 -28 -15 -11 -27 -26 -27
-34 0 -21 -49 -49 -62 -36 -8 8 -5 17 13 32 l24 21 -27 -17 c-16 -9 -28 -13
-28 -10 0 4 -16 -5 -35 -20 -19 -14 -32 -30 -29 -35 3 -5 -2 -6 -10 -3 -9 3
-16 1 -16 -5 0 -15 46 -25 67 -15 10 4 23 8 29 9 18 1 183 168 209 211 17 29
41 50 86 74 41 22 64 29 67 22 2 -7 8 -10 13 -6 5 3 9 1 9 -5 0 -6 13 -17 28
-25 45 -23 83 -106 93 -199 8 -76 20 -109 36 -94 4 4 -1 21 -10 36 -9 16 -17
47 -17 70 0 22 -11 70 -24 105 l-25 64 37 -20 37 -20 -25 20 c-14 11 -21 24
-17 28 4 4 18 -2 30 -14 20 -19 31 -21 70 -16 52 7 65 18 48 38 -6 7 -9 15 -7
17 3 2 -12 3 -33 1 -21 -2 -42 1 -45 7 -4 6 -1 11 6 11 7 1 -14 10 -47 22 -71
24 -86 35 -65 48 12 8 11 10 -7 10 -12 0 -24 -6 -26 -12 -3 -7 -3 3 -1 22 l5
35 -21 -38 c-22 -39 -58 -62 -74 -46 -17 16 -36 10 -66 -21 -16 -17 -33 -30
-37 -30 -4 0 -21 -24 -37 -53 -28 -49 -50 -54 -26 -5 11 22 10 22 -9 -2 -11
-14 -21 -20 -21 -14 0 14 39 63 40 50 0 -12 40 40 40 53 0 6 17 30 38 53 l37
42 -32 -23 c-45 -31 -42 -20 4 15 20 15 33 22 29 16 -11 -19 12 -14 55 10 22
12 42 32 45 45 8 31 22 29 27 -4 3 -17 4 -12 3 12 -1 26 -5 39 -13 37 -7 -1
-13 5 -13 13 0 18 17 20 23 3 2 -7 8 -10 12 -6 11 11 -25 49 -39 41 -6 -3 -8
-3 -4 2 4 4 -4 27 -17 50 -14 23 -25 44 -25 47 0 3 21 11 48 18 63 17 124 52
157 92 39 46 11 51 -31 6 l-32 -35 -10 33 c-11 36 -9 38 36 34 14 -1 22 4 22
14 0 18 15 21 25 6 3 -5 11 -10 16 -10 6 0 7 5 4 10 -3 6 -1 10 4 10 6 0 11 9
11 20 0 11 6 20 14 20 20 0 25 22 9 38 -8 8 -11 23 -8 34 7 21 -7 43 -38 60
-18 9 -19 8 -13 -16 4 -15 2 -26 -4 -26 -5 0 -10 8 -11 18 0 9 -2 25 -4 35 -2
9 0 15 3 13 4 -2 6 17 4 42 -5 78 -6 82 -20 73z m57 -271 l0 -25 -14 25 c-8
14 -14 36 -14 50 l0 25 14 -25 c8 -14 14 -36 14 -50z m-232 35 c-7 -17 -42
-21 -52 -5 -3 5 0 7 8 4 8 -3 20 2 27 11 15 18 25 13 17 -10z m-195 -56 c45
-11 51 -27 40 -107 -7 -48 -6 -65 5 -73 18 -16 16 -26 -6 -32 -21 -5 -56 24
-44 36 3 4 -1 7 -10 7 -10 0 -17 -6 -17 -14 0 -8 -3 -17 -7 -19 -15 -8 -68
-18 -61 -12 4 4 3 18 -2 31 -7 17 -6 24 3 25 9 0 9 2 0 5 -7 3 -9 12 -6 20 4
12 0 13 -22 4 -38 -15 -39 -13 -8 14 l28 25 -43 7 c-23 3 -45 10 -48 15 -3 5
-15 3 -27 -5 -59 -37 -93 -28 -75 21 23 61 166 86 300 52z m62 5 c3 -8 2 -12
-4 -9 -6 3 -10 10 -10 16 0 14 7 11 14 -7z m-374 -28 c0 -2 -8 -10 -17 -17
-16 -13 -17 -12 -4 4 13 16 21 21 21 13z m437 -56 c9 0 14 -3 10 -6 -3 -4 -17
-4 -31 0 -18 4 -24 11 -19 22 5 15 7 15 15 0 5 -9 16 -16 25 -16z m187 -12 c8
-37 -5 -35 -26 1 -12 21 -13 31 -5 34 16 6 23 -2 31 -35z m-54 6 c0 -8 -4 -14
-9 -14 -6 0 -9 9 -8 19 1 22 17 18 17 -5z m-601 -6 c5 -14 5 -28 -1 -35 -13
-16 -38 -17 -38 -2 0 5 -4 8 -9 5 -13 -8 0 37 13 46 18 13 26 9 35 -14z m149
-25 c-10 -2 -28 -2 -40 0 -13 2 -5 4 17 4 22 1 32 -1 23 -4z m482 -8 c0 -8 -2
-15 -4 -15 -2 0 -13 -3 -23 -7 -15 -6 -16 -4 -6 9 7 8 10 18 6 21 -3 4 1 7 10
7 10 0 17 -7 17 -15z m-152 -55 c51 -38 75 -78 68 -114 -3 -17 -13 -41 -21
-53 l-14 -21 -67 24 c-36 12 -69 25 -72 28 -8 9 20 57 38 65 8 3 16 13 17 21
1 8 5 26 9 39 6 21 4 23 -13 19 -12 -3 -20 0 -20 8 0 19 39 11 75 -16z m-119
-106 c-17 -21 -31 -17 -17 5 7 11 16 17 20 14 5 -2 4 -11 -3 -19z m71 -83 c0
-3 -20 -5 -45 -3 -45 4 -56 17 -34 39 8 8 20 6 45 -9 19 -11 34 -23 34 -27z
m131 22 c-12 -20 -14 -14 -5 12 4 9 9 14 11 11 3 -2 0 -13 -6 -23z m-448 -13
c-7 -25 -23 -37 -23 -16 0 23 11 46 20 41 5 -3 6 -14 3 -25z m-108 -180 c-3
-5 -10 -10 -16 -10 -5 0 -9 5 -9 10 0 6 7 10 16 10 8 0 12 -4 9 -10z m265
-161 c0 -5 -4 -9 -10 -9 -5 0 -10 7 -10 16 0 8 5 12 10 9 6 -3 10 -10 10 -16z"/>
<path d="M580 1075 c-5 -6 0 -10 16 -10 13 0 26 5 28 12 6 14 -32 13 -44 -2z"/>
<path d="M2722 895 c-104 -29 -160 -74 -203 -161 -26 -52 -32 -77 -32 -132 -1
-135 54 -227 171 -284 61 -30 74 -33 162 -33 84 0 102 3 158 29 117 54 176
148 176 281 0 67 -4 89 -28 137 -15 32 -46 73 -68 93 -82 70 -229 100 -336 70z
m217 -58 c136 -90 158 -329 43 -450 -93 -99 -257 -88 -339 21 -84 111 -74 302
21 396 50 51 92 66 172 63 48 -2 71 -9 103 -30z"/>
<path d="M4193 896 c-132 -42 -214 -154 -214 -296 -1 -104 23 -163 90 -230 85
-85 190 -110 308 -75 77 23 221 161 195 187 -8 8 -25 -5 -62 -45 -67 -73 -117
-97 -204 -97 -146 0 -226 95 -226 270 0 165 74 259 203 260 85 0 157 -52 197
-143 12 -27 24 -47 26 -44 3 2 2 47 -2 99 l-7 95 -98 17 c-115 19 -150 19
-206 2z"/>
<path d="M4890 896 c-75 -20 -118 -46 -164 -97 -53 -59 -76 -121 -76 -205 0
-226 215 -366 450 -295 62 19 81 31 129 79 42 42 61 71 74 111 47 149 -14 311
-142 376 -86 43 -186 55 -271 31z m186 -45 c83 -38 144 -145 144 -256 0 -112
-49 -205 -131 -250 -44 -24 -59 -27 -119 -23 -87 5 -139 38 -184 118 -29 51
-31 62 -31 155 0 110 14 151 71 209 64 64 169 84 250 47z"/>
<path d="M1305 891 c-86 -5 -103 -8 -77 -14 62 -16 62 -14 62 -278 0 -140 -4
-248 -10 -259 -5 -10 -23 -21 -40 -25 -67 -15 -19 -20 183 -20 199 0 214 1
253 22 66 35 91 112 60 186 -13 32 -78 97 -97 97 -5 0 6 16 25 35 89 89 35
212 -109 250 -32 8 -77 14 -100 13 -22 -1 -89 -4 -150 -7z m236 -47 c64 -33
88 -109 54 -173 -26 -52 -111 -75 -184 -50 l-31 11 0 113 0 114 33 4 c43 6 96
-2 128 -19z m-10 -258 c53 6 56 5 82 -26 33 -39 41 -68 34 -126 -9 -82 -73
-121 -177 -111 -95 10 -90 2 -90 147 l0 127 48 -8 c26 -5 72 -7 103 -3z"/>
<path d="M1920 891 c-103 -6 -104 -6 -64 -19 23 -7 46 -20 50 -30 4 -9 10
-111 12 -227 4 -246 -3 -284 -55 -299 -18 -5 -33 -12 -33 -15 0 -3 59 -6 130
-6 72 0 130 3 130 6 0 3 -15 10 -32 15 -47 14 -58 43 -58 162 l0 103 38 -6
c63 -11 66 -13 104 -78 20 -34 62 -92 92 -129 l56 -68 88 0 87 1 -49 24 c-61
29 -114 81 -177 169 -50 71 -57 86 -38 86 27 0 83 36 100 64 28 46 25 122 -6
168 -52 76 -133 93 -375 79z m235 -41 c56 -27 80 -71 72 -136 -9 -83 -79 -125
-182 -110 l-45 7 0 102 c0 117 5 144 29 150 39 11 88 6 126 -13z"/>
<path d="M3273 858 l67 -31 -1 -141 c-1 -77 -4 -185 -8 -239 -7 -110 -13 -121
-82 -132 -75 -13 -38 -20 101 -20 137 0 173 7 106 19 -62 12 -70 31 -80 200
-6 92 -6 177 0 215 l9 62 90 -102 c102 -115 226 -272 275 -348 20 -31 41 -51
52 -51 17 0 18 14 18 249 0 287 3 304 64 331 l41 19 -130 0 -130 1 43 -20 c64
-29 73 -60 79 -265 l4 -170 -21 25 c-12 14 -96 116 -187 228 l-165 202 -107
-1 -106 0 68 -31z"/>
<path d="M176 692 c-3 -6 -25 -8 -49 -6 -37 5 -40 4 -24 -8 25 -19 14 -68 -14
-61 -11 3 -21 -1 -25 -11 -9 -23 -39 -20 -52 7 -11 22 -11 22 -11 -5 -1 -31
10 -40 55 -45 28 -3 36 1 50 24 10 16 33 45 53 65 19 21 32 40 29 43 -3 4 -9
2 -12 -3z m-76 -96 c0 -8 -7 -16 -15 -20 -13 -4 -14 -2 -5 14 13 23 20 26 20
6z"/>
<path d="M11 654 c0 -11 3 -14 6 -6 3 7 2 16 -1 19 -3 4 -6 -2 -5 -13z"/>
<path d="M307 557 l-17 -32 20 24 c17 20 26 41 18 41 -2 0 -11 -15 -21 -33z"/>
<path d="M260 488 c-22 -37 -27 -74 -8 -62 8 5 9 2 5 -10 -4 -10 -7 -31 -7
-47 0 -34 -20 -30 -20 4 -1 20 -2 19 -16 -7 -11 -20 -13 -31 -5 -39 18 -18 13
-37 -10 -37 -19 0 -20 2 -8 18 13 15 12 16 -4 3 -29 -23 -41 -52 -26 -62 22
-14 38 -11 56 11 10 11 23 20 29 20 6 0 14 25 17 61 3 40 13 73 30 98 24 35
24 37 5 38 -28 3 -33 10 -18 28 7 8 10 15 6 15 -3 0 -15 -15 -26 -32z"/>
</g>
</svg>
